<svg xmlns="http://www.w3.org/2000/svg" x="0px" y="0px" viewBox="13.68 13.68 36.64 36.64" enable-background="new 0 0 64 64">
<g>
	<g>
	</g>
	
		<path fill="#FFFFFF" stroke="#000000" stroke-width="1.64" stroke-linecap="round" stroke-linejoin="round" stroke-miterlimit="10" d="   M23.25,14.5h17.5c4.832,0,8.75,3.918,8.75,8.75v17.5c0,4.832-3.918,8.75-8.75,8.75h-17.5c-4.832,0-8.75-3.918-8.75-8.75v-17.5   C14.5,18.418,18.418,14.5,23.25,14.5z"/>
</g>
<g>
	<path fill="none" stroke="#000000" stroke-width="1.64" stroke-linecap="round" stroke-linejoin="round" stroke-miterlimit="10" d="   M22.375,33.75h5.25c1.45,0,2.625,1.175,2.625,2.625v5.25c0,1.45-1.175,2.625-2.625,2.625h-5.25c-1.45,0-2.625-1.175-2.625-2.625   v-5.25C19.75,34.925,20.925,33.75,22.375,33.75z"/>
	
		<line fill="none" stroke="#000000" stroke-width="1.64" stroke-linecap="round" stroke-linejoin="round" stroke-miterlimit="10" x1="26.75" y1="39" x2="23.25" y2="39"/>
</g>
<g>
	<path fill="none" stroke="#536DFE" stroke-width="1.64" stroke-linecap="round" stroke-linejoin="round" stroke-miterlimit="10" d="   M22.375,19.75h5.25c1.45,0,2.625,1.175,2.625,2.625v5.25c0,1.45-1.175,2.625-2.625,2.625h-5.25c-1.45,0-2.625-1.175-2.625-2.625   v-5.25C19.75,20.925,20.925,19.75,22.375,19.75z"/>
	<path fill="none" stroke="#536DFE" stroke-width="1.64" stroke-linecap="round" stroke-linejoin="round" stroke-miterlimit="10" d="   M36.375,19.75h5.25c1.45,0,2.625,1.175,2.625,2.625v19.25c0,1.45-1.175,2.625-2.625,2.625h-5.25c-1.45,0-2.625-1.175-2.625-2.625   v-19.25C33.75,20.925,34.925,19.75,36.375,19.75z"/>
	
		<line fill="none" stroke="#536DFE" stroke-width="1.64" stroke-linecap="round" stroke-linejoin="round" stroke-miterlimit="10" x1="25" y1="23.25" x2="25" y2="26.75"/>
	
		<line fill="none" stroke="#536DFE" stroke-width="1.64" stroke-linecap="round" stroke-linejoin="round" stroke-miterlimit="10" x1="26.75" y1="25" x2="23.25" y2="25"/>
	
		<line fill="none" stroke="#536DFE" stroke-width="1.64" stroke-linecap="round" stroke-linejoin="round" stroke-miterlimit="10" x1="40.75" y1="30.25" x2="37.25" y2="30.25"/>
	
		<line fill="none" stroke="#536DFE" stroke-width="1.64" stroke-linecap="round" stroke-linejoin="round" stroke-miterlimit="10" x1="40.75" y1="33.75" x2="37.25" y2="33.75"/>
</g>
</svg>